<svg xmlns="http://www.w3.org/2000/svg" width="590" height="590" viewBox="0 0 590 590" fill="none"><rect width="589.495" height="589.495" rx="144.366" fill="#FF4D1A"></rect><path fill-rule="evenodd" clip-rule="evenodd" d="M313.209 50.202C281.519 62.311 257.155 87.7242 238.342 128.295C233.936 137.798 229.249 149.583 222.271 168.706C211.591 197.974 208.944 202.376 202.424 201.713C197.82 201.244 195.842 197.928 195.859 190.711C195.876 183.811 198.387 173.835 202.925 162.643C203.465 161.309 203.483 160.747 203.001 160.265C202.295 159.559 200.667 161.223 192.416 171.086C155.26 215.496 131.435 268.932 122.143 328.695C120.437 339.671 119.756 362.624 120.805 373.788C123.583 403.332 133.194 430.753 149.164 454.7C155.798 464.646 161.338 471.582 169.119 479.68C209.684 521.9 267.66 540.885 325.834 530.999C362.355 524.793 396.186 506.781 422.226 479.68C450.033 450.738 466.748 414.109 470.537 373.808C471.285 365.856 470.926 335.772 469.984 327.346C466.079 292.441 457.032 258.552 442.929 226.003C436.45 211.052 423.536 186.928 421.232 185.475C419.846 184.602 419.608 185.449 420.377 188.507C420.773 190.081 421.088 193.554 421.075 196.225C421.038 204.041 418.415 208.606 413.144 210.029C407.763 211.48 401.985 209.161 399.31 204.476C397.46 201.239 396.226 196.313 393.659 181.924C391.229 168.304 388.775 160.19 384.438 151.439C380.405 143.301 375.572 136.614 368.993 130.074C364.221 125.33 355.295 118.254 354.083 118.254C353.161 118.254 353.208 118.633 354.794 124.046C356.489 129.827 357.076 138.769 356.151 144.679C354.579 154.718 349.709 159.911 341.897 159.873C330.843 159.82 317.278 144.075 310.525 123.46C302.952 100.343 305.498 75.3205 317.599 53.9262C320.013 49.6586 320.466 48.0938 319.279 48.1235C318.909 48.1326 316.177 49.0683 313.209 50.202ZM311.051 277.983C332.473 282.471 350.721 294.653 362.645 312.426C368.861 321.691 372.822 331.143 375.342 342.724C376.863 349.716 376.731 366.861 375.098 374.392C368.206 406.18 343.748 430.879 312.384 437.724C285.751 443.537 257.417 435.307 237.981 416.112C225.735 404.018 217.594 388.35 214.67 371.253C213.698 365.567 213.573 363.218 213.828 355.405C214.365 338.944 218.525 325.982 227.62 312.426C240.714 292.909 261.378 280.208 285.42 276.898C291.133 276.112 304.899 276.694 311.051 277.983Z" fill="white"></path></svg>